<svg xmlns="http://www.w3.org/2000/svg" viewBox="0 0 1600 1000" width="1600" height="1000">
  <defs>
    <radialGradient id="bg" cx="0.75" cy="0.2" r="1">
      <stop offset="0" stop-color="#0b4f4a"/>
      <stop offset="0.6" stop-color="#080a13"/>
      <stop offset="1" stop-color="#05060c"/>
    </radialGradient>
  </defs>
  <rect width="1600" height="1000" fill="url(#bg)"/>

  <!-- medical cross -->
  <g transform="translate(1180 140)" fill="#2dd4bf" fill-opacity="0.12">
    <rect x="80" y="0" width="100" height="260" rx="20"/>
    <rect x="0" y="80" width="260" height="100" rx="20"/>
  </g>

  <!-- phone -->
  <g transform="translate(600 110)">
    <rect width="320" height="660" rx="46" fill="#0e1120" stroke="#2dd4bf" stroke-opacity="0.4" stroke-width="3"/>
    <rect x="30" y="60" width="260" height="46" rx="23" fill="#141830"/>
    <circle cx="58" cy="83" r="10" fill="none" stroke="#8b93b4" stroke-width="3"/>
    <g>
      <rect x="30" y="130" width="124" height="170" rx="20" fill="#141830"/>
      <rect x="166" y="130" width="124" height="170" rx="20" fill="#141830"/>
      <rect x="52" y="150" width="80" height="70" rx="35" fill="#2dd4bf" fill-opacity="0.35"/>
      <rect x="188" y="150" width="80" height="70" rx="14" fill="#ffc860" fill-opacity="0.3"/>
      <rect x="46" y="240" width="90" height="10" rx="5" fill="#eaedfb" fill-opacity="0.8"/>
      <rect x="182" y="240" width="90" height="10" rx="5" fill="#eaedfb" fill-opacity="0.8"/>
      <rect x="46" y="264" width="50" height="10" rx="5" fill="#2dd4bf"/>
      <rect x="182" y="264" width="50" height="10" rx="5" fill="#2dd4bf"/>
    </g>
    <rect x="30" y="320" width="260" height="170" rx="20" fill="#141830"/>
    <rect x="30" y="560" width="260" height="60" rx="30" fill="#2dd4bf"/>
    <text x="160" y="598" text-anchor="middle" font-family="Space Grotesk, Segoe UI, Arial, sans-serif" font-size="22" font-weight="700" fill="#05060c">Checkout</text>
  </g>

  <text x="80" y="920" font-family="Space Grotesk, Segoe UI, Arial, sans-serif" font-size="56" font-weight="700" fill="#eaedfb">Pharmacy Commerce</text>
</svg>
